<svg width="1651" height="1016" xmlns="http://www.w3.org/2000/svg" xmlns:xlink="http://www.w3.org/1999/xlink" xml:space="preserve" overflow="hidden"><defs><clipPath id="clip0"><rect x="219" y="2924" width="1651" height="1016"/></clipPath></defs><g clip-path="url(#clip0)" transform="translate(-219 -2924)"><rect x="220" y="2925" width="1648" height="1013" fill="#FFFFFF"/><g><path d="M425.5 3555.62 1817.5 3555.62M425.5 3441.61 1817.5 3441.61M425.5 3327.61 1817.5 3327.61M425.5 3213.61 1817.5 3213.61M425.5 3099.5 1817.5 3099.5" stroke="#D9D9D9" stroke-width="3.4375" stroke-linejoin="round" stroke-miterlimit="10" fill="none"/></g><g><path d="M425.5 3669.5 1817.5 3669.5" stroke="#D9D9D9" stroke-width="3.4375" stroke-linejoin="round" stroke-miterlimit="10" fill="none" fill-rule="evenodd"/></g><g><path d="M445 3441 484.016 3437.11 522.017 3430.11 561.018 3423.11 600.02 3414.11 638.021 3405.11 677.022 3397.11 716.023 3389.11 754.025 3376.11 793.026 3363.11 832.027 3351.11 870.029 3338.11 909.03 3328.11 948.031 3318.11 986.032 3307.11 1025.03 3298.11 1064.03 3289.11 1102.04 3281.11 1141.04 3276.11 1180.04 3270.11 1218.04 3264.11 1257.04 3258.11 1296.04 3251.11 1334.04 3247.11 1373.05 3243.11 1412.05 3241.11 1450.05 3239.11 1489.05 3237.11 1528.05 3234.11 1566.05 3232.11 1605.05 3230.11 1644.05 3228.11 1682.06 3226.11 1721.06 3223.11 1760.06 3221.11 1798 3219" stroke="#00B050" stroke-width="10.3125" stroke-linecap="round" stroke-linejoin="round" stroke-miterlimit="10" fill="none"/></g><g><path d="M445 3441.11 484.016 3443.11 522.017 3445.11 561.018 3446.11 600.02 3448.11 638.021 3450.11 677.022 3451.11 716.023 3453.11 754.025 3455.11 793.026 3456.11 832.027 3458.11 870.029 3459.11 909.03 3461 948.031 3458.11 986.032 3455.11 1025.03 3451.11 1064.03 3448.11 1102.04 3445.11 1141.04 3442.11 1180.04 3438.11 1218.04 3435.11 1257.04 3431.11 1296.04 3429.11 1334.04 3426.11 1373.05 3424.11 1412.05 3421.11 1450.05 3419.11 1489.05 3416.11 1528.05 3414.11 1566.05 3411.11 1605.05 3409.11 1644.05 3406.11 1682.06 3404.11 1721.06 3401.11 1760.06 3398.11 1798 3396" stroke="#4E95D9" stroke-width="10.3125" stroke-linecap="round" stroke-linejoin="round" stroke-miterlimit="10" fill="none"/></g><g><text fill="#595959" font-family="Aptos Narrow,Aptos Narrow_MSFontService,sans-serif" font-weight="400" font-stretch="semi-condensed" font-size="41" transform="matrix(1 0 0 1 314.271 3681)">$0.0</text></g><g><text fill="#595959" font-family="Aptos Narrow,Aptos Narrow_MSFontService,sans-serif" font-weight="400" font-stretch="semi-condensed" font-size="41" transform="matrix(1 0 0 1 314.271 3567)">$0.5</text></g><g><text fill="#595959" font-family="Aptos Narrow,Aptos Narrow_MSFontService,sans-serif" font-weight="400" font-stretch="semi-condensed" font-size="41" transform="matrix(1 0 0 1 314.271 3453)">$1.0</text></g><g><text fill="#595959" font-family="Aptos Narrow,Aptos Narrow_MSFontService,sans-serif" font-weight="400" font-stretch="semi-condensed" font-size="41" transform="matrix(1 0 0 1 314.271 3339)">$1.5</text></g><g><text fill="#595959" font-family="Aptos Narrow,Aptos Narrow_MSFontService,sans-serif" font-weight="400" font-stretch="semi-condensed" font-size="41" transform="matrix(1 0 0 1 314.271 3225)">$2.0</text></g><g><text fill="#595959" font-family="Aptos Narrow,Aptos Narrow_MSFontService,sans-serif" font-weight="400" font-stretch="semi-condensed" font-size="41" transform="matrix(1 0 0 1 314.271 3111)">$2.5</text></g><g><text fill="#595959" font-family="Aptos Narrow,Aptos Narrow_MSFontService,sans-serif" font-weight="400" font-stretch="semi-condensed" font-size="41" transform="matrix(1 0 0 1 434.661 3734)">1</text></g><g><text fill="#595959" font-family="Aptos Narrow,Aptos Narrow_MSFontService,sans-serif" font-weight="400" font-stretch="semi-condensed" font-size="41" transform="matrix(1 0 0 1 511.986 3734)">3</text></g><g><text fill="#595959" font-family="Aptos Narrow,Aptos Narrow_MSFontService,sans-serif" font-weight="400" font-stretch="semi-condensed" font-size="41" transform="matrix(1 0 0 1 589.311 3734)">5</text></g><g><text fill="#595959" font-family="Aptos Narrow,Aptos Narrow_MSFontService,sans-serif" font-weight="400" font-stretch="semi-condensed" font-size="41" transform="matrix(1 0 0 1 666.635 3734)">7</text></g><g><text fill="#595959" font-family="Aptos Narrow,Aptos Narrow_MSFontService,sans-serif" font-weight="400" font-stretch="semi-condensed" font-size="41" transform="matrix(1 0 0 1 743.96 3734)">9</text></g><g><text fill="#595959" font-family="Aptos Narrow,Aptos Narrow_MSFontService,sans-serif" font-weight="400" font-stretch="semi-condensed" font-size="41" transform="matrix(1 0 0 1 810.835 3734)">11</text></g><g><text fill="#595959" font-family="Aptos Narrow,Aptos Narrow_MSFontService,sans-serif" font-weight="400" font-stretch="semi-condensed" font-size="41" transform="matrix(1 0 0 1 888.16 3734)">13</text></g><g><text fill="#595959" font-family="Aptos Narrow,Aptos Narrow_MSFontService,sans-serif" font-weight="400" font-stretch="semi-condensed" font-size="41" transform="matrix(1 0 0 1 965.484 3734)">15</text></g><g><text fill="#595959" font-family="Aptos Narrow,Aptos Narrow_MSFontService,sans-serif" font-weight="400" font-stretch="semi-condensed" font-size="41" transform="matrix(1 0 0 1 1042.81 3734)">17</text></g><g><text fill="#595959" font-family="Aptos Narrow,Aptos Narrow_MSFontService,sans-serif" font-weight="400" font-stretch="semi-condensed" font-size="41" transform="matrix(1 0 0 1 1120.13 3734)">19</text></g><g><text fill="#595959" font-family="Aptos Narrow,Aptos Narrow_MSFontService,sans-serif" font-weight="400" font-stretch="semi-condensed" font-size="41" transform="matrix(1 0 0 1 1197.46 3734)">21</text></g><g><text fill="#595959" font-family="Aptos Narrow,Aptos Narrow_MSFontService,sans-serif" font-weight="400" font-stretch="semi-condensed" font-size="41" transform="matrix(1 0 0 1 1274.78 3734)">23</text></g><g><text fill="#595959" font-family="Aptos Narrow,Aptos Narrow_MSFontService,sans-serif" font-weight="400" font-stretch="semi-condensed" font-size="41" transform="matrix(1 0 0 1 1352.11 3734)">25</text></g><g><text fill="#595959" font-family="Aptos Narrow,Aptos Narrow_MSFontService,sans-serif" font-weight="400" font-stretch="semi-condensed" font-size="41" transform="matrix(1 0 0 1 1429.43 3734)">27</text></g><g><text fill="#595959" font-family="Aptos Narrow,Aptos Narrow_MSFontService,sans-serif" font-weight="400" font-stretch="semi-condensed" font-size="41" transform="matrix(1 0 0 1 1506.76 3734)">29</text></g><g><text fill="#595959" font-family="Aptos Narrow,Aptos Narrow_MSFontService,sans-serif" font-weight="400" font-stretch="semi-condensed" font-size="41" transform="matrix(1 0 0 1 1584.08 3734)">31</text></g><g><text fill="#595959" font-family="Aptos Narrow,Aptos Narrow_MSFontService,sans-serif" font-weight="400" font-stretch="semi-condensed" font-size="41" transform="matrix(1 0 0 1 1661.41 3734)">33</text></g><g><text fill="#595959" font-family="Aptos Narrow,Aptos Narrow_MSFontService,sans-serif" font-weight="400" font-stretch="semi-condensed" font-size="41" transform="matrix(1 0 0 1 1738.73 3734)">35</text></g><g><text fill="#595959" font-family="Aptos Narrow,Aptos Narrow_MSFontService,sans-serif" font-weight="700" font-stretch="semi-condensed" font-size="46" transform="matrix(6.12323e-17 -1 1 6.12323e-17 287.573 3421)">EPS</text></g><g><text fill="#595959" font-family="Aptos Narrow,Aptos Narrow_MSFontService,sans-serif" font-weight="700" font-stretch="semi-condensed" font-size="46" transform="matrix(1 0 0 1 1061.62 3802)">Month</text></g><g><text fill="#595959" font-family="Aptos Narrow,Aptos Narrow_MSFontService,sans-serif" font-weight="700" font-stretch="semi-condensed" font-size="64" transform="matrix(1 0 0 1 754.482 3020)">EPS </text></g><g><text fill="#595959" font-family="Aptos Narrow,Aptos Narrow_MSFontService,sans-serif" font-weight="700" font-stretch="semi-condensed" font-size="64" transform="matrix(1 0 0 1 868.562 3020)">-</text></g><g><text fill="#595959" font-family="Aptos Narrow,Aptos Narrow_MSFontService,sans-serif" font-weight="700" font-stretch="semi-condensed" font-size="64" transform="matrix(1 0 0 1 899.797 3020)">Growth VS Value</text></g><g><path d="M633 3871 721 3871" stroke="#00B050" stroke-width="10.3125" stroke-linecap="round" stroke-linejoin="round" stroke-miterlimit="10" fill="none" fill-rule="evenodd"/></g><g><text fill="#595959" font-family="Aptos Narrow,Aptos Narrow_MSFontService,sans-serif" font-weight="700" font-stretch="semi-condensed" font-size="41" transform="matrix(1 0 0 1 730.373 3883)">Growth Stock EPS</text></g><g><path d="M1099 3871 1187 3871" stroke="#4E95D9" stroke-width="10.3125" stroke-linecap="round" stroke-linejoin="round" stroke-miterlimit="10" fill="none" fill-rule="evenodd"/></g><g><text fill="#595959" font-family="Aptos Narrow,Aptos Narrow_MSFontService,sans-serif" font-weight="700" font-stretch="semi-condensed" font-size="41" transform="matrix(1 0 0 1 1195.79 3883)">Value Stock EPS</text></g><rect x="220.5" y="2925.5" width="1648" height="1013" stroke="#D9D9D9" stroke-width="3.4375" stroke-linejoin="round" stroke-miterlimit="10" fill="none"/></g></svg>